{"glyphs":{"A":{"ha":833,"x_min":50,"x_max":783,"o":"m 50 456 q 128 440 92 456 q 191 397 164 424 q 234 333 218 369 q 250 256 250 297 l 250 0 q 172 15 208 0 q 108 58 135 31 q 65 122 81 85 q 50 200 50 158 l 50 456 m 783 200 q 767 122 783 158 q 724 58 751 85 q 661 15 697 31 q 583 0 625 0 l 583 256 q 599 333 583 297 q 641 397 614 369 q 705 440 668 424 q 783 456 742 456 l 783 200 m 242 388 q 167 457 213 431 q 69 488 122 483 l 389 1042 q 449 989 425 1021 q 482 920 472 957 q 487 844 492 883 q 461 768 482 804 l 242 388 m 490 751 q 519 833 513 790 q 517 918 526 875 l 764 488 q 666 457 711 483 q 592 388 621 431 l 436 657 l 490 751 m 283 256 q 278 301 283 279 q 265 344 274 324 l 568 344 q 555 301 560 324 q 550 256 550 279 l 550 144 l 283 144 l 283 256 z "},"B":{"ha":750,"x_min":50,"x_max":700,"o":"m 50 842 q 65 919 50 883 q 108 983 81 956 q 172 1026 135 1010 q 250 1042 208 1042 l 250 200 q 234 122 250 158 q 191 58 218 85 q 128 15 164 31 q 50 0 92 0 l 50 842 m 169 0 q 252 83 221 31 q 283 200 283 136 l 467 200 q 490 210 481 200 q 500 233 500 219 l 500 297 q 490 321 500 311 q 467 331 481 331 l 283 331 l 283 531 l 500 531 q 578 515 542 531 q 641 472 614 499 q 684 408 668 444 q 700 331 700 372 l 700 200 q 684 122 700 158 q 641 58 668 85 q 578 15 614 31 q 500 0 542 0 l 169 0 m 283 1042 l 415 1042 q 493 1026 457 1042 q 556 983 529 1010 q 599 919 583 956 q 615 842 615 883 l 615 533 q 500 564 561 564 l 415 564 l 415 808 q 406 832 415 822 q 382 842 396 842 l 283 842 l 283 1042 z "},"C":{"ha":767,"x_min":50,"x_max":717,"o":"m 717 1042 q 701 963 717 1000 q 658 899 685 926 q 594 857 631 872 q 517 842 558 842 l 50 842 q 65 919 50 883 q 108 983 81 956 q 172 1026 135 1010 q 250 1042 208 1042 l 717 1042 m 517 200 q 594 184 558 200 q 658 141 631 168 q 701 78 685 114 q 717 0 717 42 l 169 0 q 252 83 221 31 q 283 200 283 136 l 517 200 m 250 200 q 234 122 250 158 q 191 58 218 85 q 128 15 164 31 q 50 0 92 0 l 50 808 l 250 808 l 250 200 z "},"D":{"ha":767,"x_min":50,"x_max":717,"o":"m 517 1042 q 594 1026 558 1042 q 658 983 631 1010 q 701 919 685 956 q 717 842 717 883 l 717 200 q 701 122 717 158 q 658 58 685 85 q 594 15 631 31 q 517 0 558 0 l 50 0 q 65 78 50 42 q 108 141 81 114 q 172 184 135 168 q 250 200 208 200 l 483 200 q 507 210 497 200 q 517 233 517 219 l 517 808 q 507 832 517 822 q 483 842 497 842 l 250 842 q 172 857 208 842 q 108 899 135 872 q 65 963 81 926 q 50 1042 50 1000 l 517 1042 m 250 233 q 133 202 186 233 q 50 119 81 171 l 50 842 q 61 906 50 875 q 142 835 93 861 q 250 808 192 808 l 250 233 z "},"E":{"ha":721,"x_min":50,"x_max":671,"o":"m 50 842 q 65 919 50 883 q 108 983 81 956 q 172 1026 135 1010 q 250 1042 208 1042 l 250 200 q 234 122 250 158 q 191 58 218 85 q 128 15 164 31 q 50 0 92 0 l 50 842 m 169 0 q 252 83 221 31 q 283 200 283 136 l 471 200 q 549 184 513 200 q 612 141 585 168 q 655 78 639 114 q 671 0 671 42 l 169 0 m 671 1042 q 655 963 671 1000 q 612 899 639 926 q 549 857 585 872 q 471 842 513 842 l 283 842 l 283 1042 l 671 1042 m 488 531 q 558 501 529 531 q 588 431 588 472 q 558 360 588 389 q 488 331 529 331 l 283 331 l 283 531 l 488 531 z "},"F":{"ha":721,"x_min":50,"x_max":671,"o":"m 250 200 q 234 122 250 158 q 191 58 218 85 q 128 15 164 31 q 50 0 92 0 l 50 842 q 65 919 50 883 q 108 983 81 956 q 172 1026 135 1010 q 250 1042 208 1042 l 250 200 m 671 1042 q 655 963 671 1000 q 612 899 639 926 q 549 857 585 872 q 471 842 513 842 l 283 842 l 283 1042 l 671 1042 m 283 331 l 283 531 l 588 531 q 572 452 588 489 q 528 388 556 415 q 465 346 501 361 q 388 331 429 331 l 283 331 z "},"G":{"ha":767,"x_min":50,"x_max":717,"o":"m 50 842 q 65 919 50 883 q 108 983 81 956 q 172 1026 135 1010 q 250 1042 208 1042 l 250 200 l 483 200 q 515 83 483 136 q 597 0 546 31 l 250 0 q 172 15 208 0 q 108 58 135 31 q 65 122 81 85 q 50 200 50 158 l 50 842 m 283 842 l 283 1042 l 583 1042 q 678 1003 639 1042 q 717 908 717 964 l 717 822 q 701 744 717 781 q 658 680 685 707 q 594 638 631 653 q 517 622 558 622 l 517 808 q 507 832 517 822 q 483 842 497 842 l 283 842 m 683 504 q 707 494 697 504 q 717 471 717 485 l 717 0 q 638 15 675 0 q 574 58 601 31 q 532 122 547 85 q 517 200 517 158 l 517 271 q 507 294 517 285 q 483 304 497 304 l 417 304 l 417 504 l 683 504 z "},"H":{"ha":700,"x_min":50,"x_max":650,"o":"m 283 531 l 417 531 l 417 331 l 283 331 l 283 531 m 50 842 q 65 919 50 883 q 108 983 81 956 q 172 1026 135 1010 q 250 1042 208 1042 l 250 200 q 234 122 250 158 q 191 58 218 85 q 128 15 164 31 q 50 0 92 0 l 50 842 m 650 200 q 634 122 650 158 q 591 58 618 85 q 528 15 564 31 q 450 0 492 0 l 450 842 q 465 919 450 883 q 508 983 481 956 q 572 1026 535 1010 q 650 1042 608 1042 l 650 200 z "},"I":{"ha":300,"x_min":50,"x_max":250,"o":"m 250 200 q 234 122 250 158 q 191 58 218 85 q 128 15 164 31 q 50 0 92 0 l 50 842 q 65 919 50 883 q 108 983 81 956 q 172 1026 135 1010 q 250 1042 208 1042 l 250 200 z "},"J":{"ha":650,"x_min":50,"x_max":600,"o":"m 50 0 q 65 78 50 42 q 108 141 81 114 q 172 184 135 168 q 250 200 208 200 l 367 200 q 390 210 381 200 q 400 233 400 219 l 400 842 q 415 919 400 883 q 458 983 431 956 q 522 1026 485 1010 q 600 1042 558 1042 l 600 200 q 584 122 600 158 q 541 58 568 85 q 478 15 514 31 q 400 0 442 0 l 50 0 m 50 531 q 128 515 92 531 q 191 472 164 499 q 234 408 218 444 q 250 331 250 372 l 250 233 q 133 202 186 233 q 50 119 81 171 l 50 531 z "},"K":{"ha":750,"x_min":50,"x_max":703,"o":"m 50 842 q 65 919 50 883 q 108 983 81 956 q 172 1026 135 1010 q 250 1042 208 1042 l 250 200 q 234 122 250 158 q 191 58 218 85 q 128 15 164 31 q 50 0 92 0 l 50 842 m 424 949 q 478 1006 446 983 q 549 1036 511 1028 q 626 1039 586 1044 q 700 1011 665 1033 l 283 350 l 283 725 l 424 949 m 669 276 q 697 201 692 240 q 694 125 703 163 q 664 55 686 88 q 607 0 642 22 l 354 400 l 472 588 l 669 276 z "},"L":{"ha":650,"x_min":50,"x_max":600,"o":"m 250 200 q 234 122 250 158 q 191 58 218 85 q 128 15 164 31 q 50 0 92 0 l 50 842 q 65 919 50 883 q 108 983 81 956 q 172 1026 135 1010 q 250 1042 208 1042 l 250 200 m 400 200 q 478 184 442 200 q 541 141 514 168 q 584 78 568 114 q 600 0 600 42 l 169 0 q 252 83 221 31 q 283 200 283 136 l 400 200 z "},"M":{"ha":833,"x_min":50,"x_max":783,"o":"m 606 11 q 540 0 572 0 q 426 36 478 0 q 351 135 374 72 l 261 397 q 254 402 258 403 q 250 396 250 401 l 250 200 q 234 122 250 158 q 191 59 218 86 q 128 16 164 32 q 50 0 92 0 l 50 842 q 65 919 50 883 q 108 983 81 956 q 172 1026 135 1010 q 250 1042 208 1042 l 606 11 m 583 1042 q 661 1026 625 1042 q 724 983 697 1010 q 767 919 751 956 q 783 842 783 883 l 783 0 q 705 15 742 0 q 641 58 668 31 q 599 122 614 85 q 583 200 583 158 l 583 396 q 579 402 583 401 q 572 397 575 403 l 540 304 l 435 610 l 583 1042 z "},"N":{"ha":700,"x_min":50,"x_max":650,"o":"m 113 986 q 175 1027 140 1013 q 250 1042 210 1042 l 417 624 l 417 83 l 250 501 l 250 200 q 234 122 250 158 q 191 58 218 85 q 128 15 164 31 q 50 0 92 0 l 50 842 q 66 921 50 881 q 113 986 82 961 m 650 200 q 634 122 650 158 q 591 58 618 85 q 528 15 564 31 q 450 0 492 0 l 450 842 q 465 919 450 883 q 508 983 481 956 q 572 1026 535 1010 q 650 1042 608 1042 l 650 200 z "},"O":{"ha":833,"x_min":50,"x_max":783,"o":"m 250 200 q 234 122 250 158 q 191 58 218 85 q 128 15 164 31 q 50 0 92 0 l 50 842 q 65 919 50 883 q 108 983 81 956 q 172 1026 135 1010 q 250 1042 208 1042 l 664 1042 q 581 958 613 1011 q 550 842 550 906 l 283 842 q 260 832 269 842 q 250 808 250 822 l 250 200 m 583 842 q 599 919 583 883 q 641 983 614 956 q 705 1026 668 1010 q 783 1042 742 1042 l 783 200 q 767 122 783 158 q 724 58 751 85 q 661 15 697 31 q 583 0 625 0 l 169 0 q 252 83 221 31 q 283 200 283 136 l 550 200 q 574 210 564 200 q 583 233 583 219 l 583 842 z "},"P":{"ha":750,"x_min":50,"x_max":700,"o":"m 283 531 l 467 531 q 490 540 481 531 q 500 564 500 550 l 500 808 q 490 832 500 822 q 467 842 481 842 l 283 842 l 283 1042 l 500 1042 q 578 1026 542 1042 q 641 983 614 1010 q 684 919 668 956 q 700 842 700 883 l 700 531 q 684 452 700 489 q 641 388 668 415 q 578 346 614 361 q 500 331 542 331 l 283 331 l 283 531 m 250 200 q 234 122 250 158 q 191 58 218 85 q 128 15 164 31 q 50 0 92 0 l 50 842 q 65 919 50 883 q 108 983 81 956 q 172 1026 135 1010 q 250 1042 208 1042 l 250 200 z "},"R":{"ha":750,"x_min":50,"x_max":703,"o":"m 283 1042 l 500 1042 q 578 1026 542 1042 q 641 983 614 1010 q 684 919 668 956 q 700 842 700 883 l 700 531 q 684 452 700 489 q 641 388 668 415 q 578 346 614 361 q 500 331 542 331 l 283 331 l 283 531 l 467 531 q 490 540 481 531 q 500 564 500 550 l 500 808 q 490 832 500 822 q 467 842 481 842 l 283 842 l 283 1042 m 50 842 q 65 919 50 883 q 108 983 81 956 q 172 1026 135 1010 q 250 1042 208 1042 l 250 200 q 234 122 250 158 q 191 58 218 85 q 128 15 164 31 q 50 0 92 0 l 50 842 m 419 297 l 500 297 q 569 308 536 297 q 631 338 603 318 l 669 276 q 697 201 692 240 q 694 125 703 163 q 664 55 686 88 q 607 0 642 22 l 419 297 z "},"Q":{"ha":892,"x_min":50,"x_max":842,"o":"m 250 200 q 234 122 250 158 q 191 58 218 85 q 128 15 164 31 q 50 0 92 0 l 50 842 q 65 919 50 883 q 108 983 81 956 q 172 1026 135 1010 q 250 1042 208 1042 l 664 1042 q 581 958 613 1011 q 550 842 550 906 l 283 842 q 260 832 269 842 q 250 808 250 822 l 250 200 m 583 842 q 599 919 583 883 q 641 983 614 956 q 705 1026 668 1010 q 783 1042 742 1042 l 783 189 l 583 389 l 583 842 m 783 142 q 827 76 813 113 q 842 0 842 39 q 827 -76 842 -39 q 783 -142 813 -112 l 432 210 q 388 276 403 239 q 372 352 372 314 q 388 427 372 390 q 432 493 403 464 l 783 142 m 408 188 l 594 0 l 169 0 q 252 83 221 31 q 283 200 283 136 l 396 200 l 408 188 z "},"S":{"ha":750,"x_min":50,"x_max":700,"o":"m 50 842 q 65 919 50 883 q 108 983 81 956 q 172 1026 135 1010 q 250 1042 208 1042 l 700 1042 q 684 963 700 1000 q 641 899 668 926 q 578 857 614 872 q 500 842 542 842 l 283 842 q 260 832 269 842 q 250 808 250 822 l 250 614 q 260 590 250 600 q 283 581 269 581 l 467 581 l 467 381 l 250 381 q 172 397 208 381 q 108 440 135 413 q 65 503 81 467 q 50 581 50 539 l 50 842 m 50 0 q 65 78 50 42 q 108 141 81 114 q 172 184 135 168 q 250 200 208 200 l 467 200 q 490 210 481 200 q 500 233 500 219 l 500 581 q 578 565 542 581 q 641 522 614 549 q 684 458 668 494 q 700 381 700 422 l 700 200 q 684 122 700 158 q 641 58 668 85 q 578 15 614 31 q 500 0 542 0 l 50 0 z "},"T":{"ha":833,"x_min":50,"x_max":783,"o":"m 317 808 l 517 808 l 517 200 q 501 122 517 158 q 458 58 485 85 q 394 15 431 31 q 317 0 358 0 l 317 808 m 783 1042 q 767 963 783 1000 q 724 899 751 926 q 661 857 697 872 q 583 842 625 842 l 50 842 q 65 919 50 883 q 108 983 81 956 q 172 1026 135 1010 q 250 1042 208 1042 l 783 1042 z "},"U":{"ha":700,"x_min":50,"x_max":650,"o":"m 250 0 q 172 15 208 0 q 108 58 135 31 q 65 122 81 85 q 50 200 50 158 l 50 842 q 65 919 50 883 q 108 983 81 956 q 172 1026 135 1010 q 250 1042 208 1042 l 250 233 q 260 210 250 219 q 283 200 269 200 l 417 200 l 417 0 l 250 0 m 450 842 q 465 919 450 883 q 508 983 481 956 q 572 1026 535 1010 q 650 1042 608 1042 l 650 200 q 634 122 650 158 q 591 58 618 85 q 528 15 564 31 q 450 0 492 0 l 450 842 z "},"V":{"ha":833,"x_min":50,"x_max":783,"o":"m 250 368 q 192 376 221 376 q 117 364 153 376 q 50 328 81 351 l 50 842 q 65 919 50 883 q 108 983 81 956 q 172 1026 135 1010 q 250 1042 208 1042 l 250 368 m 583 1042 q 661 1026 625 1042 q 724 983 697 1010 q 767 919 751 956 q 783 842 783 883 l 783 328 q 717 364 753 351 q 642 376 681 376 q 583 368 613 376 l 583 1042 m 583 333 q 689 336 635 349 q 783 283 743 324 l 558 58 q 492 15 529 29 q 417 0 456 0 q 341 15 378 0 q 275 58 304 29 l 50 283 q 144 336 90 324 q 250 333 199 349 q 333 283 296 321 l 393 224 q 417 214 403 214 q 440 224 431 214 l 500 283 q 583 333 538 321 z "},"W":{"ha":1100,"x_min":50,"x_max":1050,"o":"m 850 1042 q 928 1026 892 1042 q 991 983 964 1010 q 1034 919 1018 956 q 1050 842 1050 883 l 1050 200 q 1034 122 1050 158 q 991 59 1018 86 q 928 16 964 32 q 850 0 892 0 l 336 1021 q 426 1042 379 1042 q 532 1012 485 1042 q 606 932 579 982 l 835 475 q 844 469 838 468 q 850 478 850 471 l 850 1042 m 419 782 l 532 560 l 250 0 q 172 16 208 0 q 108 59 135 32 q 65 122 81 86 q 50 200 50 158 l 50 1042 q 128 1026 92 1042 q 191 983 164 1010 q 234 919 218 956 q 250 842 250 883 l 250 478 q 258 471 250 471 q 265 475 263 471 l 419 782 z "},"X":{"ha":833,"x_min":50,"x_max":783,"o":"m 382 642 q 426 576 411 613 q 440 501 440 539 q 426 425 440 463 q 382 358 411 388 l 74 667 q 50 724 50 690 l 50 842 q 65 919 50 883 q 108 983 81 956 q 172 1026 135 1010 q 250 1042 208 1042 l 250 807 q 274 750 250 774 l 382 642 m 760 375 q 770 362 765 368 q 778 349 775 356 q 782 334 781 342 q 783 318 783 326 l 783 200 q 767 122 783 158 q 724 58 751 85 q 661 15 697 31 q 583 0 625 0 l 583 235 q 560 292 583 268 l 451 400 q 472 526 479 460 q 422 646 465 593 q 451 683 435 667 l 760 375 m 583 1042 q 661 1026 625 1042 q 724 983 697 1010 q 767 919 751 956 q 783 842 783 883 l 783 724 q 760 667 783 690 l 638 544 l 496 686 l 560 750 q 578 776 571 761 q 582 791 581 783 q 583 807 583 799 l 583 1042 m 196 497 l 338 356 l 274 292 q 256 265 261 279 q 251 251 253 258 q 250 235 250 243 l 250 0 q 172 15 208 0 q 108 58 135 31 q 65 122 81 85 q 50 200 50 158 l 50 318 q 74 375 50 351 l 196 497 z "},"Y":{"ha":833,"x_min":50,"x_max":783,"o":"m 317 481 q 417 446 360 446 q 517 481 474 446 l 517 200 q 501 122 517 158 q 458 58 485 85 q 394 15 431 31 q 317 0 358 0 l 317 481 m 689 1042 q 783 1018 736 1042 l 531 547 q 481 497 513 514 q 417 479 450 479 q 352 497 383 479 q 303 547 321 514 l 50 1018 q 144 1042 97 1042 q 245 1015 197 1042 q 321 936 293 988 l 401 788 q 417 778 407 778 q 432 788 426 778 l 513 936 q 588 1015 540 988 q 689 1042 636 1042 z "},"Z":{"ha":750,"x_min":50,"x_max":700,"o":"m 250 842 q 172 857 208 842 q 108 899 135 872 q 65 963 81 926 q 50 1042 50 1000 l 667 1042 q 683 1035 676 1042 q 689 1019 689 1028 q 688 1011 689 1014 l 490 538 l 274 538 l 386 810 q 389 818 389 815 q 383 835 389 828 q 365 842 376 842 l 250 842 m 500 200 q 578 184 542 200 q 641 141 614 168 q 684 78 668 114 q 700 0 700 42 l 83 0 q 67 7 74 0 q 61 22 61 14 q 63 31 61 28 l 260 504 l 476 504 l 357 217 q 357 205 354 210 q 367 200 360 200 l 500 200 z "},"a":{"ha":833,"x_min":50,"x_max":783,"o":"m 50 456 q 128 440 92 456 q 191 397 164 424 q 234 333 218 369 q 250 256 250 297 l 250 0 q 172 15 208 0 q 108 58 135 31 q 65 122 81 85 q 50 200 50 158 l 50 456 m 783 200 q 767 122 783 158 q 724 58 751 85 q 661 15 697 31 q 583 0 625 0 l 583 256 q 599 333 583 297 q 641 397 614 369 q 705 440 668 424 q 783 456 742 456 l 783 200 m 242 388 q 167 457 213 431 q 69 488 122 483 l 389 1042 q 449 989 425 1021 q 482 920 472 957 q 487 844 492 883 q 461 768 482 804 l 242 388 m 490 751 q 519 833 513 790 q 517 918 526 875 l 764 488 q 666 457 711 483 q 592 388 621 431 l 436 657 l 490 751 m 283 256 q 278 301 283 279 q 265 344 274 324 l 568 344 q 555 301 560 324 q 550 256 550 279 l 550 144 l 283 144 l 283 256 z "},"b":{"ha":750,"x_min":50,"x_max":700,"o":"m 50 842 q 65 919 50 883 q 108 983 81 956 q 172 1026 135 1010 q 250 1042 208 1042 l 250 200 q 234 122 250 158 q 191 58 218 85 q 128 15 164 31 q 50 0 92 0 l 50 842 m 169 0 q 252 83 221 31 q 283 200 283 136 l 467 200 q 490 210 481 200 q 500 233 500 219 l 500 297 q 490 321 500 311 q 467 331 481 331 l 283 331 l 283 531 l 500 531 q 578 515 542 531 q 641 472 614 499 q 684 408 668 444 q 700 331 700 372 l 700 200 q 684 122 700 158 q 641 58 668 85 q 578 15 614 31 q 500 0 542 0 l 169 0 m 283 842 l 283 1042 l 415 1042 q 493 1026 457 1042 q 556 983 529 1010 q 599 919 583 956 q 615 842 615 883 l 615 533 q 500 564 561 564 l 415 564 l 415 808 q 406 832 415 822 q 382 842 396 842 l 283 842 z "},"c":{"ha":767,"x_min":50,"x_max":717,"o":"m 717 1042 q 701 963 717 1000 q 658 899 685 926 q 594 857 631 872 q 517 842 558 842 l 50 842 q 65 919 50 883 q 108 983 81 956 q 172 1026 135 1010 q 250 1042 208 1042 l 717 1042 m 517 200 q 594 184 558 200 q 658 141 631 168 q 701 78 685 114 q 717 0 717 42 l 169 0 q 252 83 221 31 q 283 200 283 136 l 517 200 m 250 200 q 234 122 250 158 q 191 58 218 85 q 128 15 164 31 q 50 0 92 0 l 50 808 l 250 808 l 250 200 z "},"d":{"ha":767,"x_min":50,"x_max":717,"o":"m 517 1042 q 594 1026 558 1042 q 658 983 631 1010 q 701 919 685 956 q 717 842 717 883 l 717 200 q 701 122 717 158 q 658 58 685 85 q 594 15 631 31 q 517 0 558 0 l 50 0 q 65 78 50 42 q 108 141 81 114 q 172 184 135 168 q 250 200 208 200 l 483 200 q 507 210 497 200 q 517 233 517 219 l 517 808 q 507 832 517 822 q 483 842 497 842 l 250 842 q 172 857 208 842 q 108 899 135 872 q 65 963 81 926 q 50 1042 50 1000 l 517 1042 m 250 233 q 133 202 186 233 q 50 119 81 171 l 50 842 q 61 906 50 875 q 142 835 93 861 q 250 808 192 808 l 250 233 z "},"e":{"ha":721,"x_min":50,"x_max":671,"o":"m 250 200 q 234 122 250 158 q 191 58 218 85 q 128 15 164 31 q 50 0 92 0 l 50 842 q 65 919 50 883 q 108 983 81 956 q 172 1026 135 1010 q 250 1042 208 1042 l 250 200 m 169 0 q 252 83 221 31 q 283 200 283 136 l 471 200 q 549 184 513 200 q 612 141 585 168 q 655 78 639 114 q 671 0 671 42 l 169 0 m 283 842 l 283 1042 l 671 1042 q 655 963 671 1000 q 612 899 639 926 q 549 857 585 872 q 471 842 513 842 l 283 842 m 283 331 l 283 531 l 488 531 q 558 501 529 531 q 588 431 588 472 q 558 360 588 389 q 488 331 529 331 l 283 331 z "},"f":{"ha":721,"x_min":50,"x_max":671,"o":"m 50 842 q 65 919 50 883 q 108 983 81 956 q 172 1026 135 1010 q 250 1042 208 1042 l 250 200 q 234 122 250 158 q 191 58 218 85 q 128 15 164 31 q 50 0 92 0 l 50 842 m 671 1042 q 655 963 671 1000 q 612 899 639 926 q 549 857 585 872 q 471 842 513 842 l 283 842 l 283 1042 l 671 1042 m 283 531 l 588 531 q 572 452 588 489 q 528 388 556 415 q 465 346 501 361 q 388 331 429 331 l 283 331 l 283 531 z "},"g":{"ha":767,"x_min":50,"x_max":717,"o":"m 50 842 q 65 919 50 883 q 108 983 81 956 q 172 1026 135 1010 q 250 1042 208 1042 l 250 200 l 483 200 q 515 83 483 136 q 597 0 546 31 l 250 0 q 172 15 208 0 q 108 58 135 31 q 65 122 81 85 q 50 200 50 158 l 50 842 m 583 1042 q 678 1003 639 1042 q 717 908 717 964 l 717 822 q 701 744 717 781 q 658 680 685 707 q 594 638 631 653 q 517 622 558 622 l 517 808 q 507 832 517 822 q 483 842 497 842 l 283 842 l 283 1042 l 583 1042 m 417 304 l 417 504 l 683 504 q 707 494 697 504 q 717 471 717 485 l 717 0 q 638 15 675 0 q 574 58 601 31 q 532 122 547 85 q 517 200 517 158 l 517 271 q 507 294 517 285 q 483 304 497 304 l 417 304 z "},"h":{"ha":700,"x_min":50,"x_max":650,"o":"m 283 531 l 417 531 l 417 331 l 283 331 l 283 531 m 50 842 q 65 919 50 883 q 108 983 81 956 q 172 1026 135 1010 q 250 1042 208 1042 l 250 200 q 234 122 250 158 q 191 58 218 85 q 128 15 164 31 q 50 0 92 0 l 50 842 m 650 200 q 634 122 650 158 q 591 58 618 85 q 528 15 564 31 q 450 0 492 0 l 450 842 q 465 919 450 883 q 508 983 481 956 q 572 1026 535 1010 q 650 1042 608 1042 l 650 200 z "},"i":{"ha":300,"x_min":50,"x_max":250,"o":"m 250 200 q 234 122 250 158 q 191 58 218 85 q 128 15 164 31 q 50 0 92 0 l 50 842 q 65 919 50 883 q 108 983 81 956 q 172 1026 135 1010 q 250 1042 208 1042 l 250 200 z "},"j":{"ha":650,"x_min":50,"x_max":600,"o":"m 50 0 q 65 78 50 42 q 108 141 81 114 q 172 184 135 168 q 250 200 208 200 l 367 200 q 390 210 381 200 q 400 233 400 219 l 400 842 q 415 919 400 883 q 458 983 431 956 q 522 1026 485 1010 q 600 1042 558 1042 l 600 200 q 584 122 600 158 q 541 58 568 85 q 478 15 514 31 q 400 0 442 0 l 50 0 m 50 531 q 128 515 92 531 q 191 472 164 499 q 234 408 218 444 q 250 331 250 372 l 250 233 q 133 202 186 233 q 50 119 81 171 l 50 531 z "},"k":{"ha":750,"x_min":50,"x_max":703,"o":"m 50 842 q 65 919 50 883 q 108 983 81 956 q 172 1026 135 1010 q 250 1042 208 1042 l 250 200 q 234 122 250 158 q 191 58 218 85 q 128 15 164 31 q 50 0 92 0 l 50 842 m 424 949 q 478 1006 446 983 q 549 1036 511 1028 q 626 1039 586 1044 q 700 1011 665 1033 l 283 350 l 283 725 l 424 949 m 669 276 q 697 201 692 240 q 694 125 703 163 q 664 55 686 88 q 607 0 642 22 l 354 400 l 472 588 l 669 276 z "},"l":{"ha":650,"x_min":50,"x_max":600,"o":"m 250 200 q 234 122 250 158 q 191 58 218 85 q 128 15 164 31 q 50 0 92 0 l 50 842 q 65 919 50 883 q 108 983 81 956 q 172 1026 135 1010 q 250 1042 208 1042 l 250 200 m 400 200 q 478 184 442 200 q 541 141 514 168 q 584 78 568 114 q 600 0 600 42 l 169 0 q 252 83 221 31 q 283 200 283 136 l 400 200 z "},"m":{"ha":833,"x_min":50,"x_max":783,"o":"m 606 11 q 540 0 572 0 q 426 36 478 0 q 351 135 374 72 l 261 397 q 254 402 258 403 q 250 396 250 401 l 250 200 q 234 122 250 158 q 191 59 218 86 q 128 16 164 32 q 50 0 92 0 l 50 842 q 65 919 50 883 q 108 983 81 956 q 172 1026 135 1010 q 250 1042 208 1042 l 606 11 m 583 1042 q 661 1026 625 1042 q 724 983 697 1010 q 767 919 751 956 q 783 842 783 883 l 783 0 q 705 15 742 0 q 641 58 668 31 q 599 122 614 85 q 583 200 583 158 l 583 396 q 579 402 583 401 q 572 397 575 403 l 540 304 l 435 610 l 583 1042 z "},"n":{"ha":700,"x_min":50,"x_max":650,"o":"m 113 986 q 175 1027 140 1013 q 250 1042 210 1042 l 417 624 l 417 83 l 250 501 l 250 200 q 234 122 250 158 q 191 58 218 85 q 128 15 164 31 q 50 0 92 0 l 50 842 q 66 921 50 881 q 113 986 82 961 m 650 200 q 634 122 650 158 q 591 58 618 85 q 528 15 564 31 q 450 0 492 0 l 450 842 q 465 919 450 883 q 508 983 481 956 q 572 1026 535 1010 q 650 1042 608 1042 l 650 200 z "},"o":{"ha":833,"x_min":50,"x_max":783,"o":"m 250 200 q 234 122 250 158 q 191 58 218 85 q 128 15 164 31 q 50 0 92 0 l 50 842 q 65 919 50 883 q 108 983 81 956 q 172 1026 135 1010 q 250 1042 208 1042 l 664 1042 q 581 958 613 1011 q 550 842 550 906 l 283 842 q 260 832 269 842 q 250 808 250 822 l 250 200 m 583 842 q 599 919 583 883 q 641 983 614 956 q 705 1026 668 1010 q 783 1042 742 1042 l 783 200 q 767 122 783 158 q 724 58 751 85 q 661 15 697 31 q 583 0 625 0 l 169 0 q 252 83 221 31 q 283 200 283 136 l 550 200 q 574 210 564 200 q 583 233 583 219 l 583 842 z "},"p":{"ha":750,"x_min":50,"x_max":700,"o":"m 283 842 l 283 1042 l 500 1042 q 578 1026 542 1042 q 641 983 614 1010 q 684 919 668 956 q 700 842 700 883 l 700 531 q 684 452 700 489 q 641 388 668 415 q 578 346 614 361 q 500 331 542 331 l 283 331 l 283 531 l 467 531 q 490 540 481 531 q 500 564 500 550 l 500 808 q 490 832 500 822 q 467 842 481 842 l 283 842 m 250 200 q 234 122 250 158 q 191 58 218 85 q 128 15 164 31 q 50 0 92 0 l 50 842 q 65 919 50 883 q 108 983 81 956 q 172 1026 135 1010 q 250 1042 208 1042 l 250 200 z "},"q":{"ha":892,"x_min":50,"x_max":842,"o":"m 250 200 q 234 122 250 158 q 191 58 218 85 q 128 15 164 31 q 50 0 92 0 l 50 842 q 65 919 50 883 q 108 983 81 956 q 172 1026 135 1010 q 250 1042 208 1042 l 664 1042 q 581 958 613 1011 q 550 842 550 906 l 283 842 q 260 832 269 842 q 250 808 250 822 l 250 200 m 583 842 q 599 919 583 883 q 641 983 614 956 q 705 1026 668 1010 q 783 1042 742 1042 l 783 189 l 583 389 l 583 842 m 783 142 q 827 76 813 113 q 842 0 842 39 q 827 -76 842 -39 q 783 -142 813 -112 l 432 210 q 388 276 403 239 q 372 352 372 314 q 388 427 372 390 q 432 493 403 464 l 783 142 m 408 188 l 594 0 l 169 0 q 252 83 221 31 q 283 200 283 136 l 396 200 l 408 188 z "},"r":{"ha":750,"x_min":50,"x_max":703,"o":"m 467 531 q 490 540 481 531 q 500 564 500 550 l 500 808 q 490 832 500 822 q 467 842 481 842 l 283 842 l 283 1042 l 500 1042 q 578 1026 542 1042 q 641 983 614 1010 q 684 919 668 956 q 700 842 700 883 l 700 531 q 684 452 700 489 q 641 388 668 415 q 578 346 614 361 q 500 331 542 331 l 283 331 l 283 531 l 467 531 m 50 842 q 65 919 50 883 q 108 983 81 956 q 172 1026 135 1010 q 250 1042 208 1042 l 250 200 q 234 122 250 158 q 191 58 218 85 q 128 15 164 31 q 50 0 92 0 l 50 842 m 500 297 q 569 308 536 297 q 631 338 603 318 l 669 276 q 697 201 692 240 q 694 125 703 163 q 664 55 686 88 q 607 0 642 22 l 419 297 l 500 297 z "},"s":{"ha":750,"x_min":50,"x_max":700,"o":"m 50 842 q 65 919 50 883 q 108 983 81 956 q 172 1026 135 1010 q 250 1042 208 1042 l 700 1042 q 684 963 700 1000 q 641 899 668 926 q 578 857 614 872 q 500 842 542 842 l 283 842 q 260 832 269 842 q 250 808 250 822 l 250 614 q 260 590 250 600 q 283 581 269 581 l 467 581 l 467 381 l 250 381 q 172 397 208 381 q 108 440 135 413 q 65 503 81 467 q 50 581 50 539 l 50 842 m 50 0 q 65 78 50 42 q 108 141 81 114 q 172 184 135 168 q 250 200 208 200 l 467 200 q 490 210 481 200 q 500 233 500 219 l 500 581 q 578 565 542 581 q 641 522 614 549 q 684 458 668 494 q 700 381 700 422 l 700 200 q 684 122 700 158 q 641 58 668 85 q 578 15 614 31 q 500 0 542 0 l 50 0 z "},"t":{"ha":833,"x_min":50,"x_max":783,"o":"m 317 808 l 517 808 l 517 200 q 501 122 517 158 q 458 58 485 85 q 394 15 431 31 q 317 0 358 0 l 317 808 m 783 1042 q 767 963 783 1000 q 724 899 751 926 q 661 857 697 872 q 583 842 625 842 l 50 842 q 65 919 50 883 q 108 983 81 956 q 172 1026 135 1010 q 250 1042 208 1042 l 783 1042 z "},"u":{"ha":700,"x_min":50,"x_max":650,"o":"m 250 0 q 172 15 208 0 q 108 58 135 31 q 65 122 81 85 q 50 200 50 158 l 50 842 q 65 919 50 883 q 108 983 81 956 q 172 1026 135 1010 q 250 1042 208 1042 l 250 233 q 260 210 250 219 q 283 200 269 200 l 417 200 l 417 0 l 250 0 m 450 842 q 465 919 450 883 q 508 983 481 956 q 572 1026 535 1010 q 650 1042 608 1042 l 650 200 q 634 122 650 158 q 591 58 618 85 q 528 15 564 31 q 450 0 492 0 l 450 842 z "},"v":{"ha":833,"x_min":50,"x_max":783,"o":"m 250 368 q 192 376 221 376 q 117 364 153 376 q 50 328 81 351 l 50 842 q 65 919 50 883 q 108 983 81 956 q 172 1026 135 1010 q 250 1042 208 1042 l 250 368 m 583 1042 q 661 1026 625 1042 q 724 983 697 1010 q 767 919 751 956 q 783 842 783 883 l 783 328 q 717 364 753 351 q 642 376 681 376 q 583 368 613 376 l 583 1042 m 583 333 q 689 336 635 349 q 783 283 743 324 l 558 58 q 492 15 529 29 q 417 0 456 0 q 341 15 378 0 q 275 58 304 29 l 50 283 q 144 336 90 324 q 250 333 199 349 q 333 283 296 321 l 393 224 q 417 214 403 214 q 440 224 431 214 l 500 283 q 583 333 538 321 z "},"w":{"ha":1100,"x_min":50,"x_max":1050,"o":"m 850 1042 q 928 1026 892 1042 q 991 983 964 1010 q 1034 919 1018 956 q 1050 842 1050 883 l 1050 200 q 1034 122 1050 158 q 991 59 1018 86 q 928 16 964 32 q 850 0 892 0 l 336 1021 q 426 1042 379 1042 q 532 1012 485 1042 q 606 932 579 982 l 835 475 q 844 469 838 468 q 850 478 850 471 l 850 1042 m 419 782 l 532 560 l 250 0 q 172 16 208 0 q 108 59 135 32 q 65 122 81 86 q 50 200 50 158 l 50 1042 q 128 1026 92 1042 q 191 983 164 1010 q 234 919 218 956 q 250 842 250 883 l 250 478 q 258 471 250 471 q 265 475 263 471 l 419 782 z "},"x":{"ha":833,"x_min":50,"x_max":783,"o":"m 50 842 q 65 919 50 883 q 108 983 81 956 q 172 1026 135 1010 q 250 1042 208 1042 l 250 807 q 274 750 250 774 l 382 642 q 426 576 411 613 q 440 501 440 539 q 426 425 440 463 q 382 358 411 388 l 74 667 q 50 724 50 690 l 50 842 m 451 400 q 472 526 479 460 q 422 646 465 593 q 451 683 435 667 l 760 375 q 770 362 765 368 q 778 349 775 356 q 782 334 781 342 q 783 318 783 326 l 783 200 q 767 122 783 158 q 724 58 751 85 q 661 15 697 31 q 583 0 625 0 l 583 235 q 560 292 583 268 l 451 400 m 560 750 q 578 776 571 761 q 582 791 581 783 q 583 807 583 799 l 583 1042 q 661 1026 625 1042 q 724 983 697 1010 q 767 919 751 956 q 783 842 783 883 l 783 724 q 760 667 783 690 l 638 544 l 496 686 l 560 750 m 250 0 q 172 15 208 0 q 108 58 135 31 q 65 122 81 85 q 50 200 50 158 l 50 318 q 74 375 50 351 l 196 497 l 338 356 l 274 292 q 256 265 261 279 q 251 251 253 258 q 250 235 250 243 l 250 0 z "},"y":{"ha":833,"x_min":50,"x_max":783,"o":"m 317 481 q 417 446 360 446 q 517 481 474 446 l 517 200 q 501 122 517 158 q 458 58 485 85 q 394 15 431 31 q 317 0 358 0 l 317 481 m 689 1042 q 783 1018 736 1042 l 531 547 q 481 497 513 514 q 417 479 450 479 q 352 497 383 479 q 303 547 321 514 l 50 1018 q 144 1042 97 1042 q 245 1015 197 1042 q 321 936 293 988 l 401 788 q 417 778 407 778 q 432 788 426 778 l 513 936 q 588 1015 540 988 q 689 1042 636 1042 z "},"z":{"ha":750,"x_min":50,"x_max":700,"o":"m 250 842 q 172 857 208 842 q 108 899 135 872 q 65 963 81 926 q 50 1042 50 1000 l 667 1042 q 683 1035 676 1042 q 689 1019 689 1028 q 688 1011 689 1014 l 490 538 l 274 538 l 386 810 q 389 818 389 815 q 383 835 389 828 q 365 842 376 842 l 250 842 m 500 200 q 578 184 542 200 q 641 141 614 168 q 684 78 668 114 q 700 0 700 42 l 83 0 q 67 7 74 0 q 61 22 61 14 q 63 31 61 28 l 260 504 l 476 504 l 357 217 q 357 205 354 210 q 367 200 360 200 l 500 200 z "},".":{"ha":267,"x_min":33,"x_max":233,"o":"m 200 200 q 224 190 214 200 q 233 167 233 181 l 233 33 q 224 10 233 19 q 200 0 214 0 l 67 0 q 43 10 53 0 q 33 33 33 19 l 33 167 q 43 190 33 181 q 67 200 53 200 l 200 200 l 200 200 z "},",":{"ha":267,"x_min":33,"x_max":233,"o":"m 67 0 q 43 10 53 0 q 33 33 33 19 l 33 167 q 43 190 33 181 q 67 200 53 200 l 200 200 q 224 190 214 200 q 233 167 233 181 l 233 0 q 195 -90 229 -51 q 113 -140 161 -129 q 89 -135 99 -143 q 79 -112 79 -126 l 79 -65 q 97 -40 79 -47 q 132 0 125 -29 l 67 0 l 67 0 z "},"?":{"ha":667,"x_min":33,"x_max":633,"o":"m 33 842 q 49 919 33 883 q 91 983 64 956 q 155 1026 118 1010 q 233 1042 192 1042 l 433 1042 q 511 1026 475 1042 q 574 983 547 1010 q 617 919 601 956 q 633 842 633 883 l 633 694 q 617 616 633 653 q 574 552 601 579 q 511 510 547 525 q 433 494 475 494 l 433 808 q 424 832 433 822 q 400 842 414 842 l 33 842 m 33 494 q 49 572 33 536 q 91 635 64 608 q 155 678 118 663 q 233 694 192 694 l 400 694 l 400 494 l 267 494 q 243 485 253 494 q 233 461 233 475 l 233 225 q 200 233 218 233 l 67 233 q 33 225 47 233 l 33 494 m 67 0 q 43 10 53 0 q 33 33 33 19 l 33 167 q 43 190 33 181 q 67 200 53 200 l 200 200 q 224 190 214 200 q 233 167 233 181 l 233 33 q 224 10 233 19 q 200 0 214 0 l 67 0 z "},"@":{"ha":900,"x_min":50,"x_max":850,"o":"m 50 842 q 65 919 50 883 q 108 983 81 956 q 172 1026 135 1010 q 250 1042 208 1042 l 650 1042 q 728 1026 692 1042 q 791 983 764 1010 q 834 919 818 956 q 850 842 850 883 l 850 433 q 834 355 850 392 q 791 291 818 318 q 728 249 764 264 q 650 233 692 233 l 483 233 q 405 249 442 233 q 341 291 368 264 q 299 355 314 318 q 283 433 283 392 l 283 608 q 299 686 283 650 q 341 749 314 722 q 405 792 368 776 q 483 808 442 808 l 633 808 q 650 825 650 808 q 633 842 650 842 l 50 842 m 50 808 l 250 808 l 250 0 q 172 15 208 0 q 108 58 135 31 q 65 122 81 85 q 50 200 50 158 l 50 808 m 650 200 q 728 184 692 200 q 791 141 764 168 q 834 78 818 114 q 850 0 850 42 l 283 0 l 283 200 l 650 200 m 483 467 q 492 443 483 453 q 517 433 501 433 l 617 433 q 640 443 631 433 q 650 467 650 453 l 650 575 q 640 599 650 589 q 617 608 631 608 l 517 608 q 492 599 501 608 q 483 575 483 589 l 483 467 z "},"!":{"ha":267,"x_min":33,"x_max":233,"o":"m 33 1008 q 43 1032 33 1022 q 67 1042 53 1042 l 200 1042 q 224 1032 214 1042 q 233 1008 233 1022 l 233 225 q 200 233 218 233 l 67 233 q 33 225 47 233 l 33 1008 m 33 167 q 43 190 33 181 q 67 200 53 200 l 200 200 q 224 190 214 200 q 233 167 233 181 l 233 33 q 224 10 233 19 q 200 0 214 0 l 67 0 q 43 10 53 0 q 33 33 33 19 l 33 167 z "},"#":{"ha":800,"x_min":33,"x_max":767,"o":"m 767 821 q 751 742 767 779 q 708 678 735 706 q 644 636 681 651 q 567 621 608 621 l 33 621 q 49 699 33 663 q 91 762 64 735 q 155 805 118 789 q 233 821 192 821 l 767 821 m 33 221 q 49 299 33 263 q 91 362 64 335 q 155 405 118 389 q 233 421 192 421 l 767 421 q 751 342 767 379 q 708 278 735 306 q 644 236 681 251 q 567 221 608 221 l 33 221 m 567 588 q 671 613 622 588 q 638 454 650 521 l 432 454 l 461 588 l 567 588 m 233 454 q 132 431 179 454 l 165 588 l 369 588 l 342 454 l 233 454 m 243 0 q 131 68 174 15 q 86 188 89 121 l 285 188 l 244 0 l 243 0 m 581 188 l 540 0 l 539 0 q 427 68 469 15 q 382 188 385 121 l 581 188 m 560 1042 q 670 974 628 1026 q 715 854 713 921 l 518 854 l 557 1042 l 560 1042 m 222 854 q 240 942 231 896 q 261 1042 250 989 l 264 1042 q 326 1017 297 1035 q 375 974 354 999 q 408 918 396 949 q 421 854 419 888 l 222 854 z "},"$":{"ha":750,"x_min":50,"x_max":700,"o":"m 50 842 q 65 919 50 883 q 108 983 81 956 q 172 1026 135 1010 q 250 1042 208 1042 l 700 1042 q 684 963 700 1000 q 641 899 668 926 q 578 857 614 872 q 500 842 542 842 l 283 842 q 260 832 269 842 q 250 808 250 822 l 250 614 q 260 590 250 600 q 283 581 269 581 l 467 581 l 467 381 l 250 381 q 172 397 208 381 q 108 440 135 413 q 65 503 81 467 q 50 581 50 539 l 50 842 m 50 0 q 65 78 50 42 q 108 141 81 114 q 172 184 135 168 q 250 200 208 200 l 467 200 q 490 210 481 200 q 500 233 500 219 l 500 581 q 578 565 542 581 q 641 522 614 549 q 684 458 668 494 q 700 381 700 422 l 700 200 q 684 122 700 158 q 641 58 668 85 q 578 15 614 31 q 500 0 542 0 l 50 0 m 425 808 l 425 614 l 325 614 l 325 808 l 425 808 m 325 -33 l 425 -33 l 425 -167 q 415 -190 425 -181 q 392 -200 406 -200 l 358 -200 q 335 -190 344 -200 q 325 -167 325 -181 l 325 -33 m 325 1208 q 335 1232 325 1222 q 358 1242 344 1242 l 392 1242 q 415 1232 406 1242 q 425 1208 425 1222 l 425 1075 l 325 1075 l 325 1208 m 425 347 l 425 233 l 325 233 l 325 347 l 425 347 z "}}}
